<svg version="1.1" width="100px" height="50px" baseProfile="full" xmlns="http://www.w3.org/2000/svg" xmlns:xlink="http://www.w3.org/1999/xlink" xmlns:ev="http://www.w3.org/2001/xml-events">

<!--Store-->>



<g>
	<path fill="#FFFFFF" d="M78.327,78.683h-1.47l-0.196-3.948c-0.093-1.782-0.135-3.107-0.126-3.976h-0.042
		c-0.299,1.11-0.667,2.301-1.106,3.57l-1.47,4.27H72.77l-1.344-4.2c-0.401-1.269-0.728-2.482-0.98-3.64h-0.028
		c-0.047,1.419-0.103,2.768-0.168,4.046l-0.224,3.878h-1.414l0.63-9.436h1.946l1.358,4.088c0.336,1.008,0.63,2.091,0.882,3.248
		h0.042c0.299-1.204,0.616-2.287,0.952-3.248l1.414-4.088h1.946L78.327,78.683z"/>
	<path fill="#FFFFFF" d="M85.215,78.683h-1.357l-0.113-0.784h-0.041c-0.467,0.626-1.13,0.938-1.988,0.938
		c-0.645,0-1.162-0.205-1.554-0.616c-0.354-0.373-0.532-0.835-0.532-1.386c0-0.831,0.348-1.466,1.043-1.904s1.673-0.653,2.934-0.645
		V74.16c0-0.896-0.473-1.344-1.414-1.344c-0.672,0-1.266,0.168-1.779,0.504l-0.308-0.994c0.634-0.392,1.415-0.588,2.338-0.588
		c1.782,0,2.674,0.938,2.674,2.814v2.506C85.117,77.74,85.149,78.281,85.215,78.683z M83.646,76.345v-1.05
		c-1.67-0.028-2.506,0.429-2.506,1.372c0,0.354,0.098,0.62,0.293,0.798c0.194,0.177,0.44,0.266,0.738,0.266
		c0.334,0,0.643-0.104,0.925-0.314c0.283-0.21,0.457-0.479,0.522-0.806C83.637,76.536,83.646,76.447,83.646,76.345z"/>
	<path fill="#FFFFFF" d="M91.823,72.061l-0.294,1.148c-0.383-0.187-0.821-0.28-1.316-0.28c-0.662,0-1.188,0.222-1.574,0.665
		c-0.388,0.443-0.582,1.006-0.582,1.687c0,0.719,0.203,1.288,0.609,1.708s0.922,0.63,1.547,0.63c0.467,0,0.924-0.093,1.372-0.279
		l0.21,1.134c-0.494,0.233-1.119,0.35-1.876,0.35c-1.036,0-1.862-0.314-2.478-0.944c-0.616-0.63-0.924-1.473-0.924-2.527
		s0.33-1.92,0.994-2.597c0.662-0.677,1.553-1.016,2.674-1.016C90.82,71.738,91.365,71.846,91.823,72.061z"/>
</g>
<g fill-opacity="0.5">
	<path d="M70.516,45.01c0,0.804-0.279,1.456-0.838,1.961c-0.614,0.551-1.471,0.825-2.57,0.825c-1.015,0-1.83-0.195-2.444-0.588
		l0.35-1.26c0.663,0.392,1.391,0.588,2.184,0.588c0.569,0,1.012-0.128,1.33-0.385s0.476-0.6,0.476-1.029
		c0-0.383-0.131-0.704-0.392-0.966c-0.261-0.261-0.695-0.504-1.302-0.728c-1.652-0.616-2.478-1.517-2.478-2.702
		c0-0.775,0.292-1.409,0.875-1.904c0.583-0.494,1.355-0.742,2.317-0.742c0.859,0,1.573,0.149,2.142,0.448l-0.379,1.231
		c-0.534-0.289-1.138-0.434-1.812-0.434c-0.534,0-0.951,0.131-1.251,0.392c-0.253,0.233-0.379,0.519-0.379,0.854
		c0,0.373,0.145,0.682,0.434,0.924c0.252,0.225,0.709,0.467,1.372,0.729c0.812,0.326,1.409,0.709,1.792,1.147
		C70.324,43.812,70.516,44.357,70.516,45.01z"/>
	<path d="M75.429,41.986h-1.666v3.304c0,0.84,0.294,1.26,0.882,1.26c0.271,0,0.495-0.022,0.672-0.069l0.042,1.147
		c-0.299,0.112-0.691,0.168-1.176,0.168c-0.597,0-1.064-0.182-1.4-0.546c-0.336-0.363-0.504-0.975-0.504-1.834v-3.43h-0.994v-1.134
		h0.994v-1.246l1.484-0.448v1.694h1.666V41.986z"/>
	<path d="M82.863,44.198c0,1.046-0.299,1.904-0.896,2.576c-0.625,0.69-1.455,1.036-2.492,1.036c-0.999,0-1.794-0.331-2.387-0.994
		c-0.593-0.663-0.889-1.498-0.889-2.506c0-1.055,0.306-1.918,0.917-2.59c0.611-0.673,1.435-1.009,2.471-1.009
		c0.999,0,1.801,0.332,2.408,0.994C82.574,42.351,82.863,43.181,82.863,44.198z M81.295,44.233c0-0.624-0.135-1.158-0.406-1.605
		c-0.316-0.54-0.77-0.81-1.357-0.81c-0.607,0-1.069,0.27-1.386,0.81c-0.271,0.447-0.406,0.991-0.406,1.634
		c0,0.623,0.135,1.158,0.406,1.604c0.326,0.54,0.784,0.81,1.372,0.81c0.579,0,1.032-0.274,1.358-0.823
		C81.155,45.396,81.295,44.856,81.295,44.233z"/>
	<path d="M87.903,42.183c-0.149-0.028-0.308-0.042-0.476-0.042c-0.532,0-0.943,0.2-1.232,0.602
		c-0.252,0.354-0.378,0.803-0.378,1.344v3.57h-1.512v-4.662c0-0.784-0.015-1.498-0.042-2.142h1.316l0.056,1.302h0.042
		c0.158-0.448,0.41-0.808,0.756-1.078c0.336-0.242,0.699-0.364,1.092-0.364c0.141,0,0.266,0.01,0.378,0.028V42.183z"/>
	<path d="M94.566,43.933c0,0.271-0.018,0.499-0.055,0.686h-4.537c0.02,0.672,0.238,1.186,0.658,1.54
		c0.383,0.317,0.877,0.476,1.484,0.476c0.672,0,1.283-0.106,1.834-0.321l0.238,1.05c-0.645,0.28-1.405,0.42-2.282,0.42
		c-1.055,0-1.884-0.311-2.485-0.931c-0.602-0.621-0.902-1.454-0.902-2.499c0-1.027,0.279-1.881,0.84-2.562
		c0.588-0.728,1.381-1.092,2.38-1.092c0.979,0,1.722,0.364,2.226,1.092C94.366,42.369,94.566,43.083,94.566,43.933z M93.125,43.54
		c0.01-0.448-0.089-0.835-0.294-1.162c-0.261-0.42-0.663-0.63-1.204-0.63c-0.494,0-0.896,0.206-1.203,0.616
		c-0.253,0.327-0.402,0.719-0.449,1.176H93.125z"/>
</g>

<!--Store text -->
<g>
	<path fill="#FFFFFF" d="M70.516,46.01c0,0.804-0.279,1.456-0.838,1.961c-0.614,0.551-1.471,0.825-2.57,0.825
		c-1.015,0-1.83-0.195-2.444-0.588l0.35-1.26c0.663,0.392,1.391,0.588,2.184,0.588c0.569,0,1.012-0.128,1.33-0.385
		s0.476-0.6,0.476-1.029c0-0.383-0.131-0.704-0.392-0.966c-0.261-0.261-0.695-0.504-1.302-0.728
		c-1.652-0.616-2.478-1.517-2.478-2.702c0-0.775,0.292-1.409,0.875-1.904c0.583-0.494,1.355-0.742,2.317-0.742
		c0.859,0,1.573,0.149,2.142,0.448l-0.379,1.231c-0.534-0.289-1.138-0.434-1.812-0.434c-0.534,0-0.951,0.131-1.251,0.392
		c-0.253,0.233-0.379,0.519-0.379,0.854c0,0.373,0.145,0.682,0.434,0.924c0.252,0.225,0.709,0.467,1.372,0.729
		c0.812,0.326,1.409,0.709,1.792,1.147C70.324,44.812,70.516,45.357,70.516,46.01z"/>
	<path fill="#FFFFFF" d="M75.429,42.986h-1.666v3.304c0,0.84,0.294,1.26,0.882,1.26c0.271,0,0.495-0.022,0.672-0.069l0.042,1.147
		c-0.299,0.112-0.691,0.168-1.176,0.168c-0.597,0-1.064-0.182-1.4-0.546c-0.336-0.363-0.504-0.975-0.504-1.834v-3.43h-0.994v-1.134
		h0.994v-1.246l1.484-0.448v1.694h1.666V42.986z"/>
	<path fill="#FFFFFF" d="M82.863,45.198c0,1.046-0.299,1.904-0.896,2.576c-0.625,0.69-1.455,1.036-2.492,1.036
		c-0.999,0-1.794-0.331-2.387-0.994c-0.593-0.663-0.889-1.498-0.889-2.506c0-1.055,0.306-1.918,0.917-2.59
		c0.611-0.673,1.435-1.009,2.471-1.009c0.999,0,1.801,0.332,2.408,0.994C82.574,43.351,82.863,44.181,82.863,45.198z M81.295,45.233
		c0-0.624-0.135-1.158-0.406-1.605c-0.316-0.54-0.77-0.81-1.357-0.81c-0.607,0-1.069,0.27-1.386,0.81
		c-0.271,0.447-0.406,0.991-0.406,1.634c0,0.623,0.135,1.158,0.406,1.604c0.326,0.54,0.784,0.81,1.372,0.81
		c0.579,0,1.032-0.274,1.358-0.823C81.155,46.396,81.295,45.856,81.295,45.233z"/>
	<path fill="#FFFFFF" d="M87.903,43.183c-0.149-0.028-0.308-0.042-0.476-0.042c-0.532,0-0.943,0.2-1.232,0.602
		c-0.252,0.354-0.378,0.803-0.378,1.344v3.57h-1.512v-4.662c0-0.784-0.015-1.498-0.042-2.142h1.316l0.056,1.302h0.042
		c0.158-0.448,0.41-0.808,0.756-1.078c0.336-0.242,0.699-0.364,1.092-0.364c0.141,0,0.266,0.01,0.378,0.028V43.183z"/>
	<path fill="#FFFFFF" d="M94.566,44.933c0,0.271-0.018,0.499-0.055,0.686h-4.537c0.02,0.672,0.238,1.186,0.658,1.54
		c0.383,0.317,0.877,0.476,1.484,0.476c0.672,0,1.283-0.106,1.834-0.321l0.238,1.05c-0.645,0.28-1.405,0.42-2.282,0.42
		c-1.055,0-1.884-0.311-2.485-0.931c-0.602-0.621-0.902-1.454-0.902-2.499c0-1.027,0.279-1.881,0.84-2.562
		c0.588-0.728,1.381-1.092,2.38-1.092c0.979,0,1.722,0.364,2.226,1.092C94.366,43.369,94.566,44.083,94.566,44.933z M93.125,44.54
		c0.01-0.448-0.089-0.835-0.294-1.162c-0.261-0.42-0.663-0.63-1.204-0.63c-0.494,0-0.896,0.206-1.203,0.616
		c-0.253,0.327-0.402,0.719-0.449,1.176H93.125z"/>
</g>
<!--Apple logo -->
</svg>
